HIERARCHY
ROOT Hips
{
  OFFSET 265.287 66.7526 -254.649
  CHANNELS 6 Xposition Yposition Zposition Zrotation Xrotation Yrotation
  JOINT LeftUpLeg
  {
    OFFSET 8.64259 1.95398 -2.38835
    CHANNELS 3 Zrotation Xrotation Yrotation
    JOINT LeftLeg
    {
      OFFSET 43.7702 0 0
      CHANNELS 3 Zrotation Xrotation Yrotation
      JOINT LeftFoot
      {
        OFFSET 40.6238 0 0
        CHANNELS 3 Zrotation Xrotation Yrotation
        JOINT LeftToeBase
        {
          OFFSET 12.7242 0 0
          CHANNELS 3 Zrotation Xrotation Yrotation
          End Site
          {
            OFFSET 0 0 0
          }
        }
      }
    }
  }
  JOINT RightUpLeg
  {
    OFFSET -8.2249 1.95398 -2.59336
    CHANNELS 3 Zrotation Xrotation Yrotation
    JOINT RightLeg
    {
      OFFSET 43.5653 0 0
      CHANNELS 3 Zrotation Xrotation Yrotation
      JOINT RightFoot
      {
        OFFSET 40.6238 0 0
        CHANNELS 3 Zrotation Xrotation Yrotation
        JOINT RightToeBase
        {
          OFFSET 12.7242 0 0
          CHANNELS 3 Zrotation Xrotation Yrotation
          End Site
          {
            OFFSET 0 0 0
          }
        }
      }
    }
  }
  JOINT Spine
  {
    OFFSET 0.165834 0.87714 6.61349
    CHANNELS 3 Zrotation Xrotation Yrotation
    JOINT Spine1
    {
      OFFSET 7.38963 1.71661e-005 0
      CHANNELS 3 Zrotation Xrotation Yrotation
      JOINT Spine2
      {
        OFFSET 11.9445 1.14441e-005 0
        CHANNELS 3 Zrotation Xrotation Yrotation
        JOINT Spine3
        {
          OFFSET 14.7254 4.19617e-005 0
          CHANNELS 3 Zrotation Xrotation Yrotation
          JOINT Spine4
          {
            OFFSET 10.9679 0 0
            CHANNELS 3 Zrotation Xrotation Yrotation
            JOINT RightShoulder
            {
              OFFSET 2.46616 -1.6653 3.69651
              CHANNELS 3 Zrotation Xrotation Yrotation
              JOINT RightArm
              {
                OFFSET 13.0012 0 0
                CHANNELS 3 Zrotation Xrotation Yrotation
                JOINT RightForeArm
                {
                  OFFSET 28.7848 1.52588e-005 0
                  CHANNELS 3 Zrotation Xrotation Yrotation
                  JOINT RightHand
                  {
                    OFFSET 26.5688 1.52588e-005 0
                    CHANNELS 3 Zrotation Xrotation Yrotation
                    End Site
                    {
                      OFFSET 0 0 0
                    }
                  }
                }
              }
            }
            JOINT LeftShoulder
            {
              OFFSET 2.38034 -1.29275 -3.7523
              CHANNELS 3 Zrotation Xrotation Yrotation
              JOINT LeftArm
              {
                OFFSET 16.3182 6.10351e-005 0
                CHANNELS 3 Zrotation Xrotation Yrotation
                JOINT LeftForeArm
                {
                  OFFSET 27.0901 0 0
                  CHANNELS 3 Zrotation Xrotation Yrotation
                  JOINT LeftHand
                  {
                    OFFSET 24.5451 1.52588e-005 0
                    CHANNELS 3 Zrotation Xrotation Yrotation
                    End Site
                    {
                      OFFSET 0 0 0
                    }
                  }
                }
              }
            }
            JOINT Neck
            {
              OFFSET 5.0226 -0.0266342 0
              CHANNELS 3 Zrotation Xrotation Yrotation
              JOINT Head
              {
                OFFSET 6.69364 2.86102e-005 0
                CHANNELS 3 Zrotation Xrotation Yrotation
                End Site
                {
                  OFFSET 0 0 0
                }
              }
            }
          }
        }
      }
    }
  }
}
MOTION
Frames:	15
Frame Time:	0.0416667
-298.693 63.5323 332.855 -94.205 -39.6154 -89.9645 -174.339 37.0647 89.3173 -111.473 13.7439 -1.34781 75.332 12.4272 29.8492 15.0894 6.79826 -9.57057 -175.154 62.4536 99.5509 -100.009 -32.2777 -3.22637 53.0613 6.65809 -9.19528 144.022 21.7923 35.3517 -1.04152 4.95947 -91.3051 16.9189 -2.72217 -2.16694 5.24916 -2.81488 -2.04502 -17.2847 -1.94536 -2.88463 2.72791 -1.94534 -2.88463 46.2095 -49.2502 -161.976 0.0344268 23.8735 95.7925 152.341 -9.60253 -52.8221 4.06987 -2.32925 -57.3584 -148.117 -78.2562 20.2382 -14.2 -9.44351 29.5726 16.9767 80.6836 -9.94079 46.1698 -3.86781 -12.7355 -78.6197 26.3322 15.1759 51.124 53.5145 44.385 
-298.824 63.5162 333.006 -94.2152 -39.6152 -89.9548 -174.393 37.347 89.3623 -111.46 13.9384 -1.36003 75.1757 12.4827 30.0919 14.4 7.76905 -12.0578 -174.955 62.059 99.3033 -100.014 -32.2381 -3.19611 55.543 4.80082 -9.29364 140.568 19.4316 34.4978 -1.03625 4.96276 -91.2925 16.9163 -2.70513 -2.14357 5.24665 -2.79682 -2.02243 -17.2874 -1.93612 -2.85724 2.72522 -1.93613 -2.85724 46.2627 -49.2302 -161.927 0.21068 24.0108 95.7252 152.33 -9.62227 -52.8429 4.06545 -2.32985 -57.4129 -147.735 -78.1502 20.5745 -14.0197 -9.30255 29.5167 19.4234 81.5099 -12.5006 46.3961 -3.77554 -12.4891 -78.5936 26.4258 15.1426 51.445 53.566 44.0819 
-299.21 63.4143 333.452 -94.2453 -39.6073 -89.9275 -174.547 38.1702 89.4905 -111.505 14.4551 -1.39353 74.8011 12.6435 30.7328 12.6569 11.1041 -20.6334 -174.416 60.962 98.5369 -99.855 -32.2944 -3.13363 61.8747 0.0516381 -9.17286 130.571 13.4928 31.9039 -1.02078 4.96973 -91.2549 16.909 -2.6552 -2.07509 5.23924 -2.74395 -1.95621 -17.2953 -1.90903 -2.77693 2.71731 -1.90905 -2.77694 46.4141 -49.1766 -161.785 0.724628 24.4071 95.5229 152.299 -9.67934 -52.9055 4.05332 -2.33188 -57.5712 -146.662 -77.8402 21.5126 -13.5002 -8.90454 29.3609 29.3729 83.5807 -22.7445 46.9913 -3.53465 -11.8563 -78.5115 26.6995 15.0379 52.3723 53.7078 43.2054 
-299.839 63.1311 334.176 -94.2963 -39.5952 -89.887 -174.795 39.5046 89.7041 -111.747 15.1709 -1.44111 74.3506 12.8834 31.5957 11.7301 18.2676 -39.6765 -173.76 59.4917 97.5905 -99.1723 -31.2439 -2.99718 69.8332 -6.0695 -7.04774 115.442 6.56076 27.5001 -0.995668 4.97715 -91.1926 16.8966 -2.57348 -1.96364 5.22691 -2.65738 -1.84846 -17.3084 -1.86458 -2.64612 2.70423 -1.86457 -2.64612 46.6502 -49.1027 -161.556 1.55681 25.0373 95.1786 152.248 -9.7708 -53.0107 4.03478 -2.3357 -57.8277 -145.048 -77.3344 22.9111 -12.6747 -8.29117 29.1248 58.5541 85.6225 -52.3116 47.8115 -3.2334 -11.0761 -78.3613 27.1453 14.8473 53.8557 53.9128 41.7995 
-300.684 62.6452 335.142 -94.3699 -39.5798 -89.8375 -175.155 41.3114 90.0291 -112.191 15.9892 -1.49514 73.8372 13.133 32.5115 17.7395 27.2821 -72.4025 -173.271 58.0694 96.7991 -98.0282 -31.0523 -2.86537 77.3275 -11.0303 -4.79927 98.2981 1.17487 21.9714 -0.960503 4.98743 -91.1071 16.8791 -2.46035 -1.8109 5.20936 -2.53766 -1.70086 -17.3269 -1.80253 -2.4665 2.68572 -1.80251 -2.46651 46.9563 -49.0255 -161.245 2.69258 25.8752 94.678 152.181 -9.8942 -53.1602 4.01085 -2.34162 -58.1806 -143.056 -76.6364 24.609 -11.5762 -7.50653 28.8274 104.892 85.2343 -99.0384 48.7667 -3.0019 -10.4505 -78.1232 27.7577 14.5492 55.8493 54.1459 39.9014 
-301.713 62.0079 336.311 -94.4683 -39.5619 -89.783 -175.649 43.5459 90.4946 -112.745 16.6167 -1.54942 73.2201 13.3681 33.1327 29.4258 25.9785 -104.584 -173.092 56.9521 96.3651 -96.5177 -30.9343 -2.71757 83.2885 -14.4551 -2.32477 82.6094 -1.72645 16.7423 -0.915139 5.00088 -90.9991 16.8557 -2.31547 -1.61829 5.18598 -2.38443 -1.51481 -17.3513 -1.72217 -2.2393 2.66134 -1.72218 -2.2393 47.3174 -48.9641 -160.856 4.12142 26.8933 94.0021 152.099 -10.0469 -53.3554 3.98224 -2.34993 -58.6306 -140.844 -75.7476 26.4519 -10.2381 -6.59458 28.4871 126.893 82.8128 -121.373 49.8542 -2.98011 -10.2608 -77.772 28.5329 14.1149 58.3056 54.3671 37.5481 
-302.891 61.2779 337.65 -94.5941 -39.5424 -89.7277 -176.303 46.1352 91.1252 -113.293 16.6186 -1.59693 72.4963 13.633 32.9992 36.3847 17.5029 -123.097 -173.226 56.1755 96.3068 -94.7739 -30.573 -2.55235 87.5799 -16.5051 0.211243 70.1412 -2.77467 12.7584 -0.858918 5.0177 -90.8692 16.8259 -2.13805 -1.38707 5.15607 -2.19702 -1.29161 -17.3822 -1.6224 -1.96548 2.63049 -1.62241 -1.96549 47.7183 -48.9393 -160.391 5.83534 28.0618 93.1283 152.006 -10.2258 -53.5975 3.94964 -2.36106 -59.1805 -138.546 -74.6691 28.3068 -8.69696 -5.59947 28.1218 132.603 80.3358 -127.35 51.1129 -3.28344 -10.7023 -77.2769 29.4655 13.51 61.1668 54.5333 34.7848 
-304.185 60.4926 339.132 -94.7499 -39.5216 -89.6759 -177.136 48.9797 91.9426 -113.674 17.875 -1.64986 71.1738 13.3062 33.943 39.2828 7.96141 -131.782 -173.62 55.6619 96.5609 -92.8811 -29.9708 -2.3798 90.429 -17.5144 2.62035 60.8332 -2.91806 10.0669 -0.791246 5.03823 -90.7179 16.7887 -1.92695 -1.11861 5.11872 -1.97434 -1.0327 -17.4202 -1.50174 -1.64604 2.59242 -1.50172 -1.64604 48.143 -48.9735 -159.856 7.82639 29.3471 92.0344 151.908 -10.4266 -53.8874 3.91399 -2.37555 -59.835 -136.27 -73.4034 30.0685 -6.99503 -4.56439 27.7492 131.622 78.4501 -126.599 52.551 -3.97992 -11.8472 -76.6026 30.5467 12.693 64.3569 54.6009 31.6732 
-305.564 59.6711 340.729 -94.9377 -39.4993 -89.6322 -178.169 51.983 92.9642 -113.862 19.0674 -1.6954 69.5533 12.7258 34.6616 40.4936 -1.11778 -136.023 -174.214 55.313 97.0513 -90.87 -29.16 -2.21081 92.1451 -17.8103 4.86848 53.9448 -2.72213 8.32213 -0.711245 5.06282 -90.5461 16.7433 -1.68127 -0.814586 5.07317 -1.7155 -0.739794 -17.4661 -1.35873 -1.28225 2.54654 -1.35874 -1.28226 48.5745 -49.0888 -159.253 10.0854 30.7114 90.7002 151.81 -10.6432 -54.2247 3.87663 -2.39438 -60.5994 -134.089 -71.956 31.6616 -5.17846 -3.52784 27.3865 126.862 77.2068 -122.09 54.0968 -5.07801 -13.6442 -75.7123 31.7614 11.6195 67.7805 54.5305 28.2934 
-307.001 58.8241 342.414 -95.1592 -39.4744 -89.6012 -179.421 55.0423 94.2085 -113.813 20.2525 -1.73144 67.6549 11.8625 35.2146 41.0922 -9.31681 -138.074 -174.958 55.0482 97.7149 -88.747 -28.1813 -2.05502 92.9839 -17.6333 6.97579 48.7944 -2.4292 7.20363 -0.618573 5.09154 -90.3548 16.689 -1.40056 -0.476987 5.01873 -1.42019 -0.414879 -17.5204 -1.19247 -0.875905 2.49227 -1.19247 -0.875903 48.9966 -49.305 -158.589 12.6011 32.1131 89.1104 151.721 -10.8671 -54.6082 3.83956 -2.41876 -61.4794 -132.053 -70.3364 33.0395 -3.2942 -2.52042 27.05 119.359 76.4084 -114.919 55.6075 -6.53041 -15.9652 -31.4288 30.2531 -17.5736 -92.4288 1.56347 24.8241 
-308.466 57.9615 344.158 -95.4151 -39.4452 -89.5877 179.094 58.055 95.6876 -113.507 21.4004 -1.75542 65.5426 10.7346 35.5837 41.4968 -16.6047 -138.928 -175.807 54.805 98.4982 -86.5097 -27.0787 -1.92038 93.1397 -17.1555 8.96999 44.8787 -2.1351 6.48578 -0.513216 5.12422 -90.1452 16.6258 -1.0859 -0.108261 4.95526 -1.0896 -0.0603704 -17.5831 -1.00314 -0.429646 2.42957 -1.00314 -0.429648 49.3913 -49.639 -157.877 15.3557 33.5054 87.2597 151.654 -11.0868 -55.035 3.80605 -2.45069 -62.479 -130.19 -68.5623 34.1779 -1.38805 -1.56478 26.7573 109.881 75.7576 -105.894 56.9117 -8.24027 -18.6423 -32.4367 31.4395 -18.8545 -88.7983 -3.52307 32.78 
-309.932 57.0961 345.931 -95.7046 -39.4094 -89.5972 177.379 60.9191 97.3987 -112.938 22.4773 -1.76565 63.298 9.38257 35.7555 41.8742 -23.038 -139.072 -176.718 54.5339 99.3513 -84.1502 -25.8996 -1.81317 92.7589 -16.5022 10.8704 41.8415 -1.87336 6.01797 -0.397034 5.16002 -89.9194 16.5551 -0.741618 0.288608 4.88432 -0.72819 0.320958 -17.6525 -0.794063 0.0523612 2.36013 -0.794057 0.0523598 49.7327 -50.1028 -157.14 18.3187 34.8335 85.1627 151.629 -11.2853 -55.5004 3.7819 -2.49363 -63.5992 -128.517 -66.669 35.0683 0.502153 -0.673697 26.5317 99.4937 74.9831 -96.0961 57.8602 -10.0696 -21.4902 -30.4878 32.1385 -22.0889 -89.5887 -1.81183 31.4745 
-311.369 56.2448 347.702 -96.0255 -39.3639 -89.6357 175.463 63.5441 99.3131 -112.118 23.4501 -1.76219 61.0086 7.86466 35.7267 42.2969 -28.6851 -138.765 -177.645 54.195 100.228 -81.6535 -24.6905 -1.738 91.9431 -15.7597 12.6819 39.4456 -1.65069 5.70632 -0.275105 5.19546 -89.6797 16.4838 -0.379255 0.71082 4.81272 -0.347569 0.726812 -17.7218 -0.575349 0.563993 2.29084 -0.575331 0.56398 49.9706 -50.7076 -156.436 21.4327 36.0242 82.8749 151.682 -11.4374 -55.9967 3.77734 -2.55369 -64.8329 -127.063 -64.7348 35.7138 2.3718 0.1596 26.4153 89.4332 73.9504 -86.7479 58.3716 -11.8644 -24.3305 -28.4216 32.6871 -25.4908 -90.3053 -0.0980179 30.1673 
-312.75 55.4282 349.439 -96.3731 -39.3054 -89.71 173.41 65.8609 101.367 -111.121 22.8458 -1.72899 58.8998 6.99086 34.2597 42.7942 -33.6178 -138.158 -178.541 53.7602 101.076 -79.0017 -23.5035 -1.6967 90.7602 -14.9838 14.3969 37.5343 -1.46477 5.4932 -0.158779 5.21906 -89.4284 16.4345 -0.0220249 1.15801 4.76305 0.0289759 1.15785 -17.7683 -0.369007 1.09787 2.24437 -0.368995 1.09787 49.9721 -51.4958 -155.898 24.5641 36.9621 80.554 151.876 -11.5025 -56.51 3.81067 -2.64157 -66.1589 -125.904 -62.9412 36.1091 4.31359 0.990997 26.5057 80.6529 72.6816 -78.7887 58.4455 -13.4874 -27.0067 -26.4635 33.1171 -28.9124 -90.9146 1.59306 28.92 
-314.044 54.67 351.109 -96.7405 -39.2307 -89.828 171.334 67.8226 103.451 -109.89 23.3527 -1.70869 56.7333 5.48791 33.7551 43.3721 -37.9124 -137.35 -179.358 53.2078 101.844 -76.1678 -22.3157 -1.68819 89.2747 -14.2129 16.076 35.9976 -1.3108 5.34128 -0.0588899 5.20924 -89.164 16.4503 0.309814 1.63631 4.77835 0.381515 1.62108 -17.7486 -0.196214 1.65377 2.26406 -0.196216 1.65377 49.4846 -52.5984 -155.747 27.4599 37.5155 78.4827 152.357 -11.3941 -57.0058 3.91897 -2.77901 -67.5286 -125.177 -61.5514 36.222 6.53567 1.94475 26.9627 73.7264 71.3165 -72.8 58.147 -14.8335 -29.3811 -24.9334 33.5089 -32.2376 -91.3792 3.22704 27.8029 
